<?xml version="1.0" encoding="UTF-8"?>
<svg id="Layer_2" data-name="Layer 2" xmlns="http://www.w3.org/2000/svg" viewBox="0 0 64.79 59.33">
  <defs>
    <style>
      .cls-1 {
        fill: #14CC8F;
      }
    </style>
  </defs>
  <g id="Layer_2-2" data-name="Layer 2">
    <path class="cls-1" d="m32.39,8c1.35,0,2.69.67,3.46,2l20.4,35.33c1.54,2.67-.38,6-3.46,6H11.99c-3.08,0-5-3.33-3.46-6L28.94,10c.77-1.33,2.12-2,3.46-2m0-8c-4.27,0-8.26,2.3-10.39,6L1.61,41.33c-2.14,3.7-2.14,8.3,0,12,2.14,3.7,6.12,6,10.39,6h40.8c4.27,0,8.26-2.3,10.39-6,2.14-3.7,2.14-8.3,0-12L42.78,6c-2.14-3.7-6.12-6-10.39-6h0Z"/>
  </g>
</svg>