<?xml version="1.0" encoding="UTF-8"?>
<svg id="Layer_2" data-name="Layer 2" xmlns="http://www.w3.org/2000/svg" viewBox="0 0 96 96">
  <defs>
    <style>
      .cls-1 {
        fill: #E9E9F5;
      }

      .cls-2 {
        fill: 09090A;
      }
    </style>
  </defs>
  <g id="Layer_2-2" data-name="Layer 2">
    <g id="Layer_1-2" data-name="Layer 1-2">
      <g>
        <rect class="cls-2" width="96" height="96" rx="12" ry="12"/>
        <path class="cls-1" d="m48,26.33c1.35,0,2.69.67,3.46,2l20.4,35.33c1.54,2.67-.38,6-3.46,6H27.6c-3.08,0-5-3.33-3.46-6l20.4-35.33c.77-1.33,2.12-2,3.46-2m0-8c-4.27,0-8.26,2.3-10.39,6l-20.4,35.33c-2.14,3.7-2.14,8.3,0,12,2.14,3.7,6.12,6,10.39,6h40.8c4.27,0,8.26-2.3,10.39-6,2.14-3.7,2.14-8.3,0-12l-20.4-35.33c-2.14-3.7-6.12-6-10.39-6h0Z"/>
      </g>
    </g>
  </g>
</svg>