<?xml version="1.0" encoding="UTF-8"?>
<svg id="Layer_2" data-name="Layer 2" xmlns="http://www.w3.org/2000/svg" viewBox="0 0 256 314.4">
  <g id="Layer_1-2" data-name="Layer 1">
    <path d="m213.8,167.03c.44,47.58,41.74,63.41,42.2,63.61-.35,1.12-6.6,22.56-21.76,44.72-13.1,19.15-26.7,38.23-48.13,38.63-21.05.39-27.82-12.48-51.89-12.48s-31.58,12.09-51.51,12.87c-20.68.78-36.43-20.71-49.64-39.79C6.08,235.55-14.56,164.29,13.15,116.18c13.76-23.89,38.36-39.02,65.06-39.41,20.31-.39,39.47,13.66,51.89,13.66s35.7-16.9,60.19-14.41c10.25.43,39.03,4.14,57.5,31.19-1.49.92-34.33,20.04-33.98,59.82m-39.56-116.83c10.98-13.29,18.37-31.79,16.35-50.2-15.83.64-34.96,10.55-46.31,23.83-10.17,11.76-19.08,30.59-16.68,48.63,17.64,1.36,35.66-8.96,46.64-22.26"/>
  </g>
</svg>