<?xml version="1.0" encoding="UTF-8"?>
<svg id="Layer_2" data-name="Layer 2" xmlns="http://www.w3.org/2000/svg" xmlns:xlink="http://www.w3.org/1999/xlink"
  viewBox="0 0 165 172.85">
  <defs>
    <style>
      .cls-1 {
        fill: #fff;
        fill-rule: evenodd;
      }
    </style>
  </defs>
  <g id="Layer_1-2" data-name="Layer 1">
    <g>
      <rect width="408" height="420" fill="#4285F4" />
      <image width="408" height="376" transform="scale(.4 .46)"
        xlink:href="../../../../../../../../../../../../Users/iliyangermanov/Desktop/Screenshot 2023-07-29 at 0.27.28.png" />
      <path class="cls-1"
        d="m87.75,14.21c-3.25-1.87-7.26-1.87-10.51,0L21.51,46.29c-.94.54-1.79,1.22-2.52,2.02l23.36,13.39c.57-.62,1.23-1.14,1.96-1.56l33.98-19.65c2.61-1.51,5.82-1.51,8.42,0l33.98,19.65c.73.42,1.39.95,1.96,1.56l23.36-13.39c-.73-.8-1.58-1.48-2.52-2.02,0,0-55.74-32.08-55.74-32.08Zm60.41,37.72l-23.52,13.48c.16.65.25,1.33.25,2.02v37.42c0,2.97-1.56,5.72-4.12,7.24l-34.15,20.27c-.63.38-1.31.67-2.02.87v26.56c1.06-.24,2.07-.65,3-1.2l55.99-33.09c3.2-1.89,5.16-5.32,5.16-9.03v-61.09c0-1.18-.2-2.34-.58-3.45Zm-131.92,3.45c0-1.19.2-2.36.58-3.45l23.52,13.48c-.16.66-.25,1.34-.25,2.02v39.19c0,3.07,1.68,5.9,4.37,7.38l33.81,18.51c.67.37,1.38.64,2.11.81v26.58c-1.12-.2-2.19-.58-3.19-1.12l-55.48-30.23c-3.37-1.84-5.47-5.37-5.47-9.21,0,0,0-63.95,0-63.95ZM75.14,10.57c4.55-2.62,10.16-2.62,14.71,0l55.74,32.08c4.55,2.62,7.36,7.47,7.37,12.72v61.09c0,5.19-2.74,9.99-7.22,12.64l-55.99,33.09c-4.47,2.64-10,2.74-14.56.25l-55.48-30.23c-4.72-2.57-7.66-7.51-7.67-12.89v-63.95c0-5.25,2.81-10.1,7.37-12.72L75.14,10.57h0Zm-18.1,57.95l22.26-12.85c1.98-1.14,4.42-1.14,6.4,0l22.26,12.85c1.95,1.12,3.16,3.2,3.16,5.45v24.51c0,2.23-1.18,4.28-3.1,5.42l-22.38,13.27c-1.94,1.15-4.35,1.19-6.33.11l-22.13-12.09c-2.03-1.1-3.29-3.22-3.29-5.53v-25.68c0-2.25,1.21-4.33,3.16-5.45h0Z" />
    </g>
  </g>
</svg>