<?xml version="1.0" encoding="UTF-8"?>
<svg id="Layer_2" data-name="Layer 2" xmlns="http://www.w3.org/2000/svg" viewBox="0 0 256 285.8">
  <defs>
    <style>
      .cls-1 {
        fill: #4285f4;
      }
    </style>
  </defs>
  <g id="Layer_1-2" data-name="Layer 1">
    <path class="cls-1" d="m126.94,0c5.31.09,10.53,1.51,15.16,4.13l96.63,54.57c3.89,2.2,7.37,5.14,10.15,8.58l.1-.06,1.44,2.11.17.24,1.8,2.65-.13.08c2.39,4.35,3.7,9.09,3.75,13.92v110.94c.05,5.6-1.37,11.12-4.13,16-2.76,4.88-6.75,8.95-11.57,11.8l-95.58,56.39c-3.98,2.35-8.41,3.79-12.97,4.26v.14s-6.11.05-6.11.05v-.15c-4.5-.4-8.88-1.76-12.84-4L11.27,224.31c-6.9-3.88-11.19-11.16-11.27-19.11v-117.49c.06-4.14.78-8.14,2.15-11.82l-.11-.07,2.62-5.47.15.08c2.43-3.95,5.74-7.22,9.8-9.62L110.18,4.43C115,1.58,120.49.05,126.1,0h.84ZM7.5,78.88l-.21.68c-.85,2.82-1.27,5.86-1.24,9.03v116.58c.06,5.76,3.18,11.05,8.19,13.88l101.53,57.35c3.02,1.7,6.34,2.78,9.76,3.17l.21.02.02-4.93.02-20.69-.03-23.48h-.14c-2.1-.29-4.14-.89-6.06-1.79l-.71-.35-.63-.34-61.51-34.74c-2.24-1.26-4.1-3.09-5.4-5.3-1.3-2.21-2-4.72-2.03-7.32v-70.61c-.02-2.25.26-4.44.84-6.5l.2-.66L7.5,78.88Zm239.56-3.47l-42.2,25.2.09.19c1.04,2.25,1.65,4.64,1.77,7.09l.02.67v67.2c.03,3.6-.88,7.15-2.66,10.29-1.77,3.14-4.34,5.76-7.44,7.59l-57.9,34.16c-2,1.18-4.18,2.01-6.44,2.45l-.5.09v4.78s.03,27.68.03,27.68l-.04,16.26v.47s.9-.13.9-.13c2.89-.47,5.68-1.43,8.26-2.84l.7-.4,95.58-56.39c3.91-2.31,7.15-5.61,9.38-9.56,2.23-3.96,3.39-8.43,3.34-13v-110.94c-.03-3.43-.9-6.85-2.49-10.07l-.4-.77Zm-123.06,11.18c-.91.27-1.79.65-2.62,1.14l-38.81,22.9c-1.13.66-2.12,1.54-2.92,2.57-.31.4-.6.83-.85,1.27-.13.22-.24.45-.36.68l-.21.52c-.48,1.15-.8,2.38-.93,3.67-.05.49-.07.99-.06,1.5v47.36c.01,1.36.39,2.7,1.08,3.88.69,1.17,1.68,2.15,2.87,2.81l41.23,23.29c1.79,1.01,3.81,1.53,5.87,1.52l.44-.02v12.75s.03,12.16.03,12.16l-.03-24.92c1.91-.08,3.78-.63,5.43-1.61l38.81-22.9c1.77-1.05,3.24-2.54,4.26-4.34.16-.29.31-.58.44-.89.72-1.57,1.09-3.27,1.07-5v-45.06c0-.82-.12-1.63-.32-2.41-.13-.52-.3-1.03-.51-1.53-.1-.25-.22-.49-.34-.73-.14-.28-.3-.56-.46-.83l-.18-.28-.18-.28c-.28-.41-.59-.81-.92-1.19-.99-1.14-2.17-2.1-3.49-2.85l-39.24-22.16c-1.57-.89-3.32-1.4-5.13-1.5-1.35-.07-2.7.09-4,.48Zm2.16-80.54c-4.54.04-9,1.28-12.91,3.59L17.67,66.02c-2.91,1.72-5.32,4-7.18,6.74l-.42.63,42.9,24.02.45-.61c1.3-1.69,2.87-3.15,4.71-4.32l.56-.35,57.9-34.16c3.1-1.83,6.64-2.82,10.24-2.85,3.6-.03,7.15.88,10.29,2.65l58.54,33.07c2.02,1.14,3.86,2.59,5.44,4.29l.39.43,42.12-25.15-.46-.53c-1.94-2.14-4.21-4.02-6.72-5.53l-.69-.4L139.13,9.39c-3.96-2.24-8.43-3.39-12.97-3.35Z"/>
  </g>
</svg>