<?xml version="1.0" encoding="UTF-8"?>
<svg id="Layer_2" data-name="Layer 2" xmlns="http://www.w3.org/2000/svg" viewBox="0 0 256 307.66">
  <defs>
    <style>
      .cls-1 {
        fill: #fff;
      }

      .cls-2 {
        fill: #ff3e00;
      }
    </style>
  </defs>
  <g id="Layer_1-2" data-name="Layer 1">
    <g>
      <path class="cls-2" d="m239.68,40.71C211.11-.18,154.69-12.3,113.89,13.69L42.25,59.36c-19.57,12.31-33.05,32.3-37.13,55.06-3.42,18.96-.41,38.52,8.54,55.58-6.13,9.3-10.32,19.75-12.3,30.72-4.12,23.2,1.27,47.07,14.96,66.24,28.57,40.89,85,53.01,125.79,27.02l71.65-45.66c19.57-12.31,33.05-32.3,37.13-55.06,3.42-18.96.42-38.52-8.53-55.58,6.13-9.3,10.31-19.75,12.29-30.72,4.13-23.2-1.27-47.07-14.96-66.24"/>
      <path class="cls-1" d="m106.89,270.84c-23.1,6.01-47.5-3.04-61.1-22.65-8.24-11.53-11.48-25.9-9-39.85.42-2.27.99-4.5,1.71-6.69l1.35-4.12,3.67,2.7c8.48,6.23,17.96,10.97,28.04,14.01l2.66.81-.25,2.66c-.33,3.78.7,7.56,2.89,10.66,4.09,5.91,11.44,8.63,18.4,6.83,1.56-.42,3.04-1.07,4.4-1.93l71.67-45.67c3.55-2.23,5.99-5.85,6.73-9.98.74-4.21-.23-8.53-2.71-12.01-4.1-5.91-11.44-8.64-18.4-6.83-1.56.42-3.04,1.07-4.4,1.93l-27.35,17.43c-4.5,2.86-9.41,5.01-14.55,6.39-23.1,6.01-47.5-3.04-61.1-22.65-8.24-11.53-11.48-25.9-9-39.85,2.46-13.69,10.57-25.71,22.34-33.11l71.66-45.68c4.5-2.86,9.41-5.02,14.56-6.4,23.1-6.01,47.5,3.04,61.1,22.65,8.24,11.53,11.48,25.9,9,39.85-.42,2.27-.99,4.5-1.71,6.69l-1.35,4.12-3.67-2.69c-8.48-6.23-17.96-10.97-28.04-14.01l-2.66-.81.25-2.66c.32-3.78-.7-7.56-2.89-10.66-4.09-5.91-11.44-8.63-18.4-6.83-1.56.42-3.04,1.07-4.4,1.93l-71.67,45.67c-3.55,2.23-5.99,5.85-6.73,9.97-.75,4.21.23,8.53,2.71,12.01,4.1,5.91,11.44,8.64,18.4,6.83,1.56-.42,3.04-1.07,4.4-1.93l27.35-17.43c4.5-2.86,9.4-5.02,14.55-6.4,23.1-6.01,47.5,3.04,61.1,22.65,8.24,11.53,11.48,25.9,9,39.85-2.46,13.69-10.57,25.71-22.34,33.12l-71.66,45.67c-4.5,2.86-9.41,5.02-14.56,6.4"/>
    </g>
  </g>
</svg>