<?xml version="1.0" encoding="UTF-8"?>
<svg id="Layer_2" data-name="Layer 2" xmlns="http://www.w3.org/2000/svg" viewBox="0 0 256 256">
  <defs>
    <style>
      .cls-1 {
        fill: #007acc;
      }

      .cls-2 {
        fill: #fff;
      }
    </style>
  </defs>
  <g id="Layer_1-2" data-name="Layer 1">
    <g>
      <polygon class="cls-1" points="0 128 0 256 128 256 256 256 256 128 256 0 128 0 0 0 0 128"/>
      <path class="cls-2" d="m56.61,128.85l-.08,10.48h33.32v94.68h23.57v-94.68h33.32v-10.28c0-5.69-.12-10.44-.28-10.57-.12-.16-20.4-.24-44.98-.2l-44.74.12-.12,10.44Z"/>
      <path class="cls-2" d="m206.57,118.11c6.5,1.63,11.46,4.51,16.01,9.22,2.36,2.52,5.85,7.11,6.14,8.21.08.33-11.05,7.8-17.8,11.99-.24.16-1.22-.89-2.32-2.52-3.29-4.79-6.75-6.87-12.03-7.23-7.76-.53-12.76,3.54-12.72,10.32,0,1.99.28,3.17,1.1,4.79,1.71,3.54,4.88,5.65,14.83,9.96,18.33,7.88,26.17,13.08,31.05,20.48,5.45,8.25,6.66,21.41,2.97,31.21-4.06,10.65-14.14,17.88-28.32,20.28-4.39.77-14.79.65-19.5-.2-10.28-1.83-20.03-6.91-26.05-13.57-2.36-2.6-6.95-9.39-6.66-9.87.12-.16,1.18-.81,2.36-1.5,1.14-.65,5.45-3.13,9.51-5.49l7.35-4.27,1.54,2.28c2.15,3.29,6.87,7.8,9.71,9.31,8.17,4.31,19.38,3.7,24.91-1.26,2.36-2.15,3.33-4.39,3.33-7.68,0-2.97-.37-4.27-1.91-6.5-1.99-2.84-6.05-5.24-17.59-10.24-13.21-5.69-18.9-9.22-24.1-14.83-3.01-3.25-5.85-8.45-7.03-12.8-.98-3.62-1.22-12.68-.45-16.34,2.72-12.76,12.35-21.66,26.25-24.3,4.51-.85,14.99-.53,19.42.57Z"/>
    </g>
  </g>
</svg>